<svg xmlns="http://www.w3.org/2000/svg" viewBox="0 0 339.94 139.58"><title>Apple Pay logo - Brandlogos.net</title><path d="M404.17,467.25c-4,4.71-10.36,8.43-16.73,7.9-.8-6.37,2.32-13.15,6-17.33,4-4.85,11-8.3,16.6-8.57.66,6.64-1.93,13.15-5.84,18m5.78,9.16c-9.23-.53-17.13,5.25-21.51,5.25s-11.16-5-18.46-4.85a27.27,27.27,0,0,0-23.17,14.08c-10,17.13-2.59,42.5,7,56.44,4.71,6.91,10.36,14.48,17.8,14.21,7-.27,9.83-4.58,18.33-4.58s11,4.58,18.46,4.45c7.7-.13,12.55-6.91,17.26-13.81a60.57,60.57,0,0,0,7.7-15.87c-.13-.13-14.87-5.78-15-22.78-.13-14.21,11.62-21,12.15-21.38-6.64-9.83-17-10.89-20.58-11.16m53.32-19.26V560.67h16.07V525.28h22.24c20.32,0,34.6-13.94,34.6-34.13s-14-34-34.06-34H463.27Zm16.07,13.55h18.53c13.94,0,21.91,7.44,21.91,20.52s-8,20.58-22,20.58H479.34Zm86.19,90.77c10.09,0,19.46-5.11,23.71-13.21h.33v12.42h14.87V509.15c0-14.94-12-24.57-30.35-24.57-17.07,0-29.68,9.76-30.15,23.17h14.48c1.2-6.37,7.11-10.56,15.21-10.56,9.83,0,15.34,4.58,15.34,13v5.71l-20.05,1.2c-18.66,1.13-28.75,8.77-28.75,22S550.59,561.47,565.53,561.47Zm4.32-12.28c-8.57,0-14-4.12-14-10.43,0-6.51,5.25-10.29,15.27-10.89L589,526.74v5.84C589,542.28,580.74,549.19,569.85,549.19Zm54.45,39.64c15.67,0,23-6,29.48-24.1L682,485.57H665.67l-18.92,61.16h-.33l-18.92-61.16h-16.8l27.22,75.37-1.46,4.58c-2.46,7.77-6.44,10.76-13.55,10.76-1.26,0-3.72-.13-4.71-.27v12.42A44.26,44.26,0,0,0,624.3,588.83Z" transform="translate(-342.06 -449.25)"/></svg>