<svg xmlns="http://www.w3.org/2000/svg" viewBox="0 0 134.18 82.24"><title>Edenred logo</title><path d="M495.77,506.59a4.34,4.34,0,0,0-4.37,3.61h8.49A3.9,3.9,0,0,0,495.77,506.59Z" transform="translate(-444.91 -470.88)" style="fill:#f72717"/><path d="M473.07,507.49a4.72,4.72,0,0,0-5,5,5,5,0,1,0,5-5Z" transform="translate(-444.91 -470.88)" style="fill:#f72717"/><path d="M534.35,502.69c-4.56,0-8.11,1.82-8.69,6.55h0c-1.43-21.42-18.33-38.36-40.11-38.36a41.13,41.13,0,0,0-38.08,25.59h14.6l-.76,4.91H449.84v5.2h10.37l-.79,4.73h-9.58v3c0,1.84.79,2.71,2.31,2.71h9.79l-.79,4.91H450.31a8.66,8.66,0,0,1-1.51-.13h0a4.86,4.86,0,0,1-3-1.72,4,4,0,0,1-.73-1.52l-.11-.45c.08.61.21,1.43.27,1.74.33,1.72.75,3.17.79,3.27A41.19,41.19,0,0,0,525.54,522H520v-10c0-2.71-1-4.45-3.72-4.45s-3.72,1.74-3.72,4.45v10H507V510.57c0-5.46,4-7.88,9.25-7.88s9.25,2.42,9.25,7.88V522h5.56v-10c0-2.71.72-4.45,3.36-4.45a6.23,6.23,0,0,1,2.2.43l1-4.84A26.36,26.36,0,0,0,534.35,502.69Zm-50.69,8.71c0,6.9-4.08,10.95-10.84,10.95-6.25,0-10.48-4.19-10.48-9.83,0-5.89,4-9.83,10-9.83a8,8,0,0,1,5.78,2.17v-8.38h5.53V511.4Zm13.95,6.79a10.82,10.82,0,0,0,4.54-1.12l-.46,4.37a14.59,14.59,0,0,1-5.42.9c-6.36,0-10.84-3.72-10.84-10,0-5.49,4-9.61,10.15-9.61,6.94,0,10.41,4.41,10.26,11.2H491.54C492.08,517,495,518.19,497.61,518.19Z" transform="translate(-444.91 -470.88)" style="fill:#f72717"/><path d="M546.89,502.69c-6.14,0-10.15,4.12-10.15,9.61,0,6.32,4.48,10,10.84,10a14.59,14.59,0,0,0,5.42-.9l.46-4.37a10.81,10.81,0,0,1-4.54,1.12c-2.57,0-5.53-1.19-6.07-4.3h14.31C557.3,507.1,553.83,502.69,546.89,502.69Zm-4.19,7.52a4.35,4.35,0,0,1,4.37-3.61,3.9,3.9,0,0,1,4.12,3.61Z" transform="translate(-444.91 -470.88)" style="fill:#f72717"/><path d="M573.56,496.47v8.38a8,8,0,0,0-5.78-2.17c-6,0-10,3.94-10,9.83,0,5.64,4.23,9.83,10.48,9.83,6.76,0,10.84-4,10.84-10.95V496.47Zm-5.06,21.1a4.79,4.79,0,0,1-5-5.06,5,5,0,1,1,10,0A4.79,4.79,0,0,1,568.5,517.58Z" transform="translate(-444.91 -470.88)" style="fill:#f72717"/></svg>