<svg id="Layer_1" data-name="Layer 1" xmlns="http://www.w3.org/2000/svg" viewBox="0 0 302.14 97.55"><defs><style>.cls-1{fill:#2b3797;}.cls-2{fill:#ed1c24;}</style></defs><title>Sodexo logo - Brandlogos.net</title><path id="path5955" class="cls-1" d="M376.31,395.55,373,412.3c-1.48,6.79-5.57,11.32-13.93,11.32-9.59,0-12.12-5.95-10-14.32,3-11.87,12.66-15.4,27.29-13.75m15.1-23.94-10.19.65L378,388.66c-3.9-.14-5.12-.27-9.71-.27-14.34,0-26.87,6-30.18,20.18-3,12.76,4.27,22.66,20.07,22.66,16.19,0,23.23-8.44,25.76-20.32Z" transform="translate(-232.93 -335.23)"/><path id="path5959" class="cls-1" d="M280.8,396.27c-14.95-1.36-27.81-.12-28,5-.32,7.62,24.64,1,24.16,15-.7,20.6-35.42,15.86-44,13.24l1.56-6.12c14.81,2.35,30.44,2.55,30.78-5.62.37-8.68-24.7-.88-24.11-14.94.43-10.47,16.1-16.12,41.75-12.35Z" transform="translate(-232.93 -335.23)"/><path id="path5963" class="cls-1" d="M321.11,410.28c-2.16,8.6-9,14-17.09,14-8.49,0-12.32-4.92-10-14,2.16-8.6,9.06-14.37,17.18-14.37s12.11,5.77,9.95,14.37m-8.64-21.41c-14.87,0-26.83,8.6-29.76,21.41s5.06,21.42,19.92,21.42,26.82-8.6,29.76-21.42-5.06-21.41-19.92-21.41" transform="translate(-232.93 -335.23)"/><path id="path5967" class="cls-1" d="M484.25,431.48H471.33c-7.84-7.37-22.83-24.3-33.87-42.22h9.48c10.49,14.47,37.31,42.22,37.31,42.22" transform="translate(-232.93 -335.23)"/><path id="path5971" class="cls-1" d="M497.8,347.62l5.94-12.39,1.7,12.6,12.12-4.24-8.47,10.86,9.19,7.12-12.27.95-.67,13.11-6.82-9.69-10,9.24,3.76-13-11.82-1.6L491.94,354l-4.72-11.21Z" transform="translate(-232.93 -335.23)"/><path id="path5975" class="cls-1" d="M523,410.41c-2.19,8.73-9.12,14.22-17.36,14.22-8.63,0-12.51-5-10.2-14.22,2.2-8.73,9.2-14.6,17.44-14.6s12.32,5.87,10.12,14.6m-8.79-21.76c-15.09,0-27.23,8.74-30.22,21.76s5.14,21.76,20.23,21.76,27.25-8.74,30.23-21.76-5.14-21.76-20.24-21.76" transform="translate(-232.93 -335.23)"/><path id="path5979" class="cls-2" d="M427.66,427.88c24.41-13.56,45.62-34.39,60.66-52.4-10.82,33.84-36.84,52-60.66,52.4" transform="translate(-232.93 -335.23)"/><path id="path5983" class="cls-1" d="M418,395.15c4.68,0,7.22,1.7,7.22,4.94,0,8.6-16.77,8-24.17,6.53A17.78,17.78,0,0,1,418,395.15m17.28,4.47c0-6.24-5-10.83-16.26-10.83-18.3,0-30.19,11.88-30.19,26.59,0,9.5,7.88,17.39,22.28,17.39a30,30,0,0,0,16.56-4.89c-12.63,1.36-28.14,0-28.14-13.51,0-.54,0-1.07.07-1.61,17.23,3.58,35.68-.75,35.68-13.14" transform="translate(-232.93 -335.23)"/></svg>