<svg id="Layer_1" data-name="Layer 1" xmlns="http://www.w3.org/2000/svg" viewBox="0 0 175.75 70.3"><title>Ticket Restaurant logo - Brandlogos.net</title><path d="M380.92,348.7c0,1.85,7.28,3.26,16.29,3.26,9.23,0,16.51-1.41,16.51-3.26s-7.28-3.47-16.51-3.47c-9,0-16.29,1.52-16.29,3.47Z" transform="translate(-311.5 -316.23)" style="fill:#0080c5;fill-rule:evenodd"/><path d="M413.71,332.52a16.13,16.13,0,1,1-16.18-16.29,16.15,16.15,0,0,1,16.18,16.29Z" transform="translate(-311.5 -316.23)" style="fill:#e30d1c;fill-rule:evenodd"/><path d="M413.71,332.52a16.13,16.13,0,1,1-16.18-16.29,16.15,16.15,0,0,1,16.18,16.29Zm-21.94-7.17h0Z" transform="translate(-311.5 -316.23)" style="fill:#e30d1c;fill-rule:evenodd"/><path d="M391.78,325.35h16.07a16.09,16.09,0,0,0-1.29-6.35,16,16,0,0,0-9-2.77,16.3,16.3,0,0,0-15,22.23,15.75,15.75,0,0,0,9.2,3,16.1,16.1,0,0,0,16.07-16.07Z" transform="translate(-311.5 -316.23)" style="fill:#e30d1c;fill-rule:evenodd"/><path d="M391.78,325.35h15.85a15.88,15.88,0,0,0-1.41-6.57,16,16,0,0,0-8.69-2.55A16.3,16.3,0,0,0,382.41,338a15.82,15.82,0,0,0,25.23-12.65Z" transform="translate(-311.5 -316.23)" style="fill:#e3191d;fill-rule:evenodd"/><path d="M391.78,325.35h15.64a15.45,15.45,0,0,0-1.57-6.8,16,16,0,0,0-8.31-2.32,16.3,16.3,0,0,0-15.25,21.41,15.61,15.61,0,0,0,25.13-12.29Z" transform="translate(-311.5 -316.23)" style="fill:#e41f21;fill-rule:evenodd"/><path d="M391.78,325.35h15.31a15.26,15.26,0,0,0-1.73-7.09,16,16,0,0,0-7.83-2,16.3,16.3,0,0,0-15.39,21,15.07,15.07,0,0,0,9.64,3.48,15.29,15.29,0,0,0,15.31-15.31Z" transform="translate(-311.5 -316.23)" style="fill:#e42624;fill-rule:evenodd"/><path d="M391.78,325.35h15.09a15.07,15.07,0,0,0-1.85-7.27,16,16,0,0,0-7.49-1.85A16.3,16.3,0,0,0,382,336.69a15.05,15.05,0,0,0,24.87-11.34Z" transform="translate(-311.5 -316.23)" style="fill:#e42925;fill-rule:evenodd"/><path d="M391.78,325.35h14.88a14.77,14.77,0,0,0-2-7.47,16,16,0,0,0-7.1-1.66,16.3,16.3,0,0,0-15.62,20.1,14.84,14.84,0,0,0,24.75-11Z" transform="translate(-311.5 -316.23)" style="fill:#e53027;fill-rule:evenodd"/><path d="M391.78,325.35h14.55a14.48,14.48,0,0,0-2.21-7.71,16,16,0,0,0-6.59-1.41A16.3,16.3,0,0,0,381.83,336a14.55,14.55,0,0,0,24.5-10.62Z" transform="translate(-311.5 -316.23)" style="fill:#e6362a;fill-rule:evenodd"/><path d="M391.78,325.35h14.33a14.28,14.28,0,0,0-2.34-7.86,16,16,0,0,0-6.24-1.26,16.22,16.22,0,0,0-16.07,16.29,16.44,16.44,0,0,0,.26,2.91,14.31,14.31,0,0,0,24.39-10.07Z" transform="translate(-311.5 -316.23)" style="fill:#e6382c;fill-rule:evenodd"/><path d="M391.78,325.35H405.9a14.07,14.07,0,0,0-2.48-8,16,16,0,0,0-5.88-1.11,16.22,16.22,0,0,0-16.07,16.29,16.46,16.46,0,0,0,.19,2.49,14.07,14.07,0,0,0,24.25-9.66Z" transform="translate(-311.5 -316.23)" style="fill:#e73e30;fill-rule:evenodd"/><path d="M391.78,325.35h13.9a13.67,13.67,0,0,0-2.7-8.17,16,16,0,0,0-5.45-.95,16.29,16.29,0,0,0-15.93,18.42,13.86,13.86,0,0,0,24.08-9.29Z" transform="translate(-311.5 -316.23)" style="fill:#e74133;fill-rule:evenodd"/><path d="M391.78,325.35h13.57a13.51,13.51,0,0,0-2.87-8.34,16,16,0,0,0-5-.78,16.22,16.22,0,0,0-16.07,16.29c0,.55,0,1.09.08,1.63a13.41,13.41,0,0,0,10.24,4.78,13.58,13.58,0,0,0,13.57-13.57Z" transform="translate(-311.5 -316.23)" style="fill:#e84735;fill-rule:evenodd"/><path d="M391.78,325.35h13.36a13.3,13.3,0,0,0-3-8.45,16,16,0,0,0-4.59-.67,16.22,16.22,0,0,0-16.07,16.29c0,.39,0,.78,0,1.16a13.3,13.3,0,0,0,23.63-8.33Z" transform="translate(-311.5 -316.23)" style="fill:#e84a38;fill-rule:evenodd"/><path d="M391.78,325.35h13.14a12.93,12.93,0,0,0-3.21-8.57,16.08,16.08,0,0,0-20.25,15.74c0,.27,0,.53,0,.79a13.09,13.09,0,0,0,23.44-8Z" transform="translate(-311.5 -316.23)" style="fill:#e94f3c;fill-rule:evenodd"/><path d="M391.78,325.35h12.81a12.79,12.79,0,0,0-3.38-8.7,16,16,0,0,0-3.68-.43,16.22,16.22,0,0,0-16.07,16.29c0,.11,0,.22,0,.33a12.63,12.63,0,0,0,10.31,5.32,12.77,12.77,0,0,0,12.81-12.81Z" transform="translate(-311.5 -316.23)" style="fill:#e9553e;fill-rule:evenodd"/><path d="M391.78,325.35h12.6a12.56,12.56,0,0,0-3.58-8.79,16.08,16.08,0,0,0-19.33,15.83,12.56,12.56,0,0,0,22.91-7Z" transform="translate(-311.5 -316.23)" style="fill:#ea5742;fill-rule:evenodd"/><path d="M391.78,325.35h12.38a12.17,12.17,0,0,0-3.8-8.87A16.07,16.07,0,0,0,381.47,332a12.33,12.33,0,0,0,22.69-6.62Z" transform="translate(-311.5 -316.23)" style="fill:#ea5c44;fill-rule:evenodd"/><path d="M391.78,325.35h12.05a12,12,0,0,0-4-9,16.05,16.05,0,0,0-18.37,15.08,12,12,0,0,0,22.34-6.13Z" transform="translate(-311.5 -316.23)" style="fill:#eb5f48;fill-rule:evenodd"/><path d="M391.78,325.35h11.84a11.82,11.82,0,0,0-4.18-9,16,16,0,0,0-17.91,14.74,11.81,11.81,0,0,0,22.09-5.73Z" transform="translate(-311.5 -316.23)" style="fill:#eb644b;fill-rule:evenodd"/><path d="M391.78,325.35H403.4a11.42,11.42,0,0,0-4.43-9.06c-.47,0-.95-.07-1.43-.07a16.2,16.2,0,0,0-16,14.4,11.56,11.56,0,0,0,21.83-5.28Z" transform="translate(-311.5 -316.23)" style="fill:#ec674f;fill-rule:evenodd"/><path d="M391.78,325.35h11.29a11.23,11.23,0,0,0-4.54-9.09c-.33,0-.66,0-1,0a16.2,16.2,0,0,0-15.91,14,11.28,11.28,0,0,0,21.45-4.9Z" transform="translate(-311.5 -316.23)" style="fill:#ec6c53;fill-rule:evenodd"/><path d="M391.78,325.35h11.08a11.07,11.07,0,0,0-4.76-9.11h-.56a16.19,16.19,0,0,0-15.83,13.48,11,11,0,0,0,21.15-4.36Z" transform="translate(-311.5 -316.23)" style="fill:#ed7157;fill-rule:evenodd"/><path d="M391.78,325.35h10.86a10.87,10.87,0,0,0-5-9.12h-.12a16.19,16.19,0,0,0-15.75,13.07,10.81,10.81,0,0,0,20.86-3.95Z" transform="translate(-311.5 -316.23)" style="fill:#ed7459;fill-rule:evenodd"/><path d="M391.78,325.35h10.53a10.47,10.47,0,0,0-5.21-9.12,16.19,16.19,0,0,0-15.23,12.65,10.53,10.53,0,0,0,20.44-3.53Z" transform="translate(-311.5 -316.23)" style="fill:#ee795d;fill-rule:evenodd"/><path d="M391.78,325.35h10.32a10.24,10.24,0,0,0-5.4-9.1A16.2,16.2,0,0,0,382,328.32a10.25,10.25,0,0,0,20.09-3Z" transform="translate(-311.5 -316.23)" style="fill:#ee7b60;fill-rule:evenodd"/><path d="M391.78,325.35h10.1a10.15,10.15,0,0,0-5.67-9.06,16.2,16.2,0,0,0-14.08,11.63,10.05,10.05,0,0,0,19.76-2.57Z" transform="translate(-311.5 -316.23)" style="fill:#ef7f65;fill-rule:evenodd"/><path d="M391.78,325.35h9.88a9.76,9.76,0,0,0-6-9,16.21,16.21,0,0,0-13.38,11.16,9.83,9.83,0,0,0,19.42-2.15Z" transform="translate(-311.5 -316.23)" style="fill:#ef8167;fill-rule:evenodd"/><path d="M391.78,325.35h9.56a9.49,9.49,0,0,0-6.16-8.94,16.22,16.22,0,0,0-12.72,10.48,9.5,9.5,0,0,0,18.88-1.54Z" transform="translate(-311.5 -316.23)" style="fill:#f0866c;fill-rule:evenodd"/><path d="M391.78,325.35h9.34a9.35,9.35,0,0,0-6.4-8.87,16.22,16.22,0,0,0-12.1,10,9.29,9.29,0,0,0,18.5-1.12Z" transform="translate(-311.5 -316.23)" style="fill:#f08a6f;fill-rule:evenodd"/><path d="M391.78,325.35h9.12a9.05,9.05,0,0,0-6.86-8.73A16.24,16.24,0,0,0,382.79,326a9.07,9.07,0,0,0,18.11-.69Z" transform="translate(-311.5 -316.23)" style="fill:#f18d73;fill-rule:evenodd"/><path d="M391.78,325.35h8.8a8.75,8.75,0,0,0-7-8.62,16.24,16.24,0,0,0-10.48,8.65,8.74,8.74,0,1,0,17.48,0Z" transform="translate(-311.5 -316.23)" style="fill:#f19177;fill-rule:evenodd"/><path d="M391.78,325.35h8.58a8.52,8.52,0,0,0-7.27-8.48,16.25,16.25,0,0,0-9.77,8.07c0,.14,0,.27,0,.41a8.53,8.53,0,0,0,17.05,0Z" transform="translate(-311.5 -316.23)" style="fill:#f2937b;fill-rule:evenodd"/><path d="M391.78,325.35h8.36a8.26,8.26,0,0,0-7.82-8.24,16.27,16.27,0,0,0-8.75,7.36,8.45,8.45,0,0,0,0,.88,8.31,8.31,0,0,0,16.62,0Z" transform="translate(-311.5 -316.23)" style="fill:#f2987e;fill-rule:evenodd"/><path d="M391.78,325.35h8a8,8,0,0,0-8-8,16.27,16.27,0,0,0-7.77,6.42,8.18,8.18,0,0,0-.16,1.61,8,8,0,1,0,16,0Z" transform="translate(-311.5 -316.23)" style="fill:#f39b82;fill-rule:evenodd"/><path d="M391.78,325.35h7.82a7.79,7.79,0,0,0-7.82-7.82l-.57,0a16.28,16.28,0,0,0-6.85,5.66,7.92,7.92,0,0,0-.29,2.14,7.76,7.76,0,0,0,15.53,0Z" transform="translate(-311.5 -316.23)" style="fill:#f39f85;fill-rule:evenodd"/><path d="M391.78,325.35h7.6a7.62,7.62,0,0,0-7.6-7.6,7.25,7.25,0,0,0-1.22.1,16.31,16.31,0,0,0-5.76,4.75,7.54,7.54,0,1,0,14.58,2.75Z" transform="translate(-311.5 -316.23)" style="fill:#f4a38a;fill-rule:evenodd"/><path d="M391.78,325.35h7.28a7.28,7.28,0,0,0-9.61-6.89,16.33,16.33,0,0,0-4.07,3.43,7.28,7.28,0,1,0,13.68,3.46Z" transform="translate(-311.5 -316.23)" style="fill:#f4a68d;fill-rule:evenodd"/><path d="M391.78,325.35h7.06a7,7,0,0,0-7.06-7.06,6.83,6.83,0,0,0-3.89,1.22q-.48.37-.93.77a7.08,7.08,0,0,0-2.13,5.07,7,7,0,0,0,14,0Z" transform="translate(-311.5 -316.23)" style="fill:#f5aa92;fill-rule:evenodd"/><path d="M391.78,325.35h6.84a6.79,6.79,0,1,0-6.84,6.73,6.81,6.81,0,0,0,6.84-6.73Z" transform="translate(-311.5 -316.23)" style="fill:#f5ad95;fill-rule:evenodd"/><path d="M391.78,325.35h6.62a6.57,6.57,0,1,0-6.62,6.52,6.56,6.56,0,0,0,6.62-6.52Z" transform="translate(-311.5 -316.23)" style="fill:#f6b19a;fill-rule:evenodd"/><path d="M391.78,325.35h6.3a6.24,6.24,0,1,0-6.3,6.3,6.3,6.3,0,0,0,6.3-6.3Z" transform="translate(-311.5 -316.23)" style="fill:#f6b39c;fill-rule:evenodd"/><path d="M391.78,325.35h6.08a6,6,0,1,0-6.08,6,6.07,6.07,0,0,0,6.08-6Z" transform="translate(-311.5 -316.23)" style="fill:#f6b7a0;fill-rule:evenodd"/><path d="M391.78,325.35h5.86a5.81,5.81,0,1,0-5.86,5.76,5.82,5.82,0,0,0,5.86-5.76Z" transform="translate(-311.5 -316.23)" style="fill:#f7baa5;fill-rule:evenodd"/><path d="M391.78,325.35h5.54a5.48,5.48,0,1,0-5.54,5.54,5.49,5.49,0,0,0,5.54-5.54Z" transform="translate(-311.5 -316.23)" style="fill:#f7beaa;fill-rule:evenodd"/><path d="M391.78,325.35h5.32a5.27,5.27,0,1,0-10.53,0,5.27,5.27,0,0,0,10.53,0Z" transform="translate(-311.5 -316.23)" style="fill:#f8c2ae;fill-rule:evenodd"/><path d="M391.78,325.35h5.1a5.05,5.05,0,1,0-5.1,5,5.08,5.08,0,0,0,5.1-5Z" transform="translate(-311.5 -316.23)" style="fill:#f8c4b2;fill-rule:evenodd"/><path d="M391.78,325.35h4.78a4.72,4.72,0,1,0-4.78,4.78,4.75,4.75,0,0,0,4.78-4.78Z" transform="translate(-311.5 -316.23)" style="fill:#f9c8b5;fill-rule:evenodd"/><path d="M391.78,325.35h4.56a4.59,4.59,0,0,0-4.56-4.56,4.5,4.5,0,0,0-4.45,4.56,4.4,4.4,0,0,0,4.45,4.45,4.5,4.5,0,0,0,4.56-4.45Z" transform="translate(-311.5 -316.23)" style="fill:#f9caba;fill-rule:evenodd"/><path d="M391.78,325.35h4.34a4.29,4.29,0,0,0-8.58,0,4.29,4.29,0,0,0,8.58,0Z" transform="translate(-311.5 -316.23)" style="fill:#f9cebd;fill-rule:evenodd"/><path d="M391.78,325.35h4a3.94,3.94,0,0,0-4-4,4,4,0,0,0-4,4,4.08,4.08,0,0,0,4,4,4,4,0,0,0,4-4Z" transform="translate(-311.5 -316.23)" style="fill:#fad0c2;fill-rule:evenodd"/><path d="M391.78,325.35h3.8a3.75,3.75,0,1,0-7.49,0,3.75,3.75,0,0,0,7.49,0Z" transform="translate(-311.5 -316.23)" style="fill:#fad4c6;fill-rule:evenodd"/><path d="M391.78,325.35h3.58a3.53,3.53,0,1,0-7.06,0,3.53,3.53,0,0,0,7.06,0Z" transform="translate(-311.5 -316.23)" style="fill:#fad8cb;fill-rule:evenodd"/><path d="M391.78,325.35H395a3.2,3.2,0,0,0-3.26-3.26,3.27,3.27,0,0,0-3.26,3.26,3.34,3.34,0,0,0,3.26,3.26,3.27,3.27,0,0,0,3.26-3.26Z" transform="translate(-311.5 -316.23)" style="fill:#fbdbce;fill-rule:evenodd"/><path d="M391.78,325.35h3a3,3,0,1,0-6,0,3,3,0,1,0,6,0Z" transform="translate(-311.5 -316.23)" style="fill:#fbded4;fill-rule:evenodd"/><path d="M391.78,325.35h2.82a2.87,2.87,0,0,0-2.82-2.82,2.78,2.78,0,0,0-2.71,2.82,2.69,2.69,0,0,0,2.71,2.71,2.78,2.78,0,0,0,2.82-2.71Z" transform="translate(-311.5 -316.23)" style="fill:#fbe1d6;fill-rule:evenodd"/><path d="M391.78,325.35h2.61a2.55,2.55,0,1,0-2.61,2.5,2.55,2.55,0,0,0,2.61-2.5Z" transform="translate(-311.5 -316.23)" style="fill:#fce4db;fill-rule:evenodd"/><path d="M391.78,325.35h2.28a2.23,2.23,0,0,0-2.28-2.28,2.2,2.2,0,0,0-2.17,2.28,2.23,2.23,0,1,0,4.45,0Z" transform="translate(-311.5 -316.23)" style="fill:#fce6de;fill-rule:evenodd"/><path d="M391.78,325.35h2.06a2,2,0,1,0-4,0,2,2,0,0,0,2,2,2,2,0,0,0,2.06-2Z" transform="translate(-311.5 -316.23)" style="fill:#fce9e1;fill-rule:evenodd"/><path d="M391.78,325.35h1.85a1.81,1.81,0,0,0-1.85-1.74,1.74,1.74,0,1,0,0,3.48,1.81,1.81,0,0,0,1.85-1.74Z" transform="translate(-311.5 -316.23)" style="fill:#fdede6;fill-rule:evenodd"/><path d="M391.78,325.35h1.52a1.48,1.48,0,0,0-1.52-1.52,1.46,1.46,0,0,0-1.41,1.52,1.54,1.54,0,0,0,1.41,1.52,1.55,1.55,0,0,0,1.52-1.52Z" transform="translate(-311.5 -316.23)" style="fill:#fdf0ec;fill-rule:evenodd"/><path d="M391.78,325.35h1.3a1.25,1.25,0,0,0-1.3-1.3,1.23,1.23,0,0,0-1.2,1.3,1.21,1.21,0,0,0,1.2,1.19,1.23,1.23,0,0,0,1.3-1.19Z" transform="translate(-311.5 -316.23)" style="fill:#fdf3ef;fill-rule:evenodd"/><path d="M391.78,325.35h1.08a1,1,0,0,0-1.08-1,1,1,0,1,0,0,2,1,1,0,0,0,1.08-1Z" transform="translate(-311.5 -316.23)" style="fill:#fdf6f3;fill-rule:evenodd"/><path d="M391.78,325.35h.76a.74.74,0,0,0-.76-.76.77.77,0,0,0,0,1.52.74.74,0,0,0,.76-.76Z" transform="translate(-311.5 -316.23)" style="fill:#fff9f7;fill-rule:evenodd"/><path d="M391.78,325.35h.54a.51.51,0,0,0-.54-.54.5.5,0,0,0-.44.54.47.47,0,0,0,.44.43.5.5,0,0,0,.54-.43Z" transform="translate(-311.5 -316.23)" style="fill:#fffbf9;fill-rule:evenodd"/><path d="M391.78,325.35h.33a.35.35,0,0,0-.33-.33c-.11,0-.22.22-.22.33a.23.23,0,0,0,.22.22c.22,0,.33-.11.33-.22Z" transform="translate(-311.5 -316.23)" style="fill:#fff;fill-rule:evenodd"/><path d="M361.45,386.33h-1.51s2.12-2.12,3-3.23a9.16,9.16,0,0,0-3.63.2v-.2a16.19,16.19,0,0,1,2.32-.81c.91,0,1.51-.2,2.42-.2.4,0,1,.2,1.92.2a4.45,4.45,0,0,0,1.71.2l.4-3-2.32,2.32h-1.51L369,377h1.51s-.91,5-.91,5.65h1.51a4.72,4.72,0,0,1,4.54-3.43,5.39,5.39,0,0,1,1.92.4,5.07,5.07,0,0,0-.81.71,3.14,3.14,0,0,0-1.11-.5c-2.12.2-2.42,2.62-2.42,2.62l-.2.2a12.39,12.39,0,0,1-4.74.91h-1.71l-1-.3h-.91l-.2-.2-3,3.23Zm7.56,0h-2.22l.5-2.32h2.12l-.4,2.32Zm7.56-1.21.2.4a4.82,4.82,0,0,1-2.82,1,2.67,2.67,0,0,1-2.82-2.92,8.34,8.34,0,0,0,2.12-.91c-.2.61-.2,4.14,3.33,2.42Z" transform="translate(-311.5 -316.23)" style="fill:#0080c5;fill-rule:evenodd"/><path d="M383.44,379.67a2.2,2.2,0,0,0-.91.71,2.29,2.29,0,0,0-1-.5,2.21,2.21,0,0,0-1.71.91,3.72,3.72,0,0,0-.71,2.32c0,1.51.4,2.42,1.71,2.42a2.3,2.3,0,0,0,1.51-.4l.2.4c-2.52,1.92-5.75,1-5.55-1.92a4.33,4.33,0,0,1,4.54-4.34,4.54,4.54,0,0,1,1.92.4Z" transform="translate(-311.5 -316.23)" style="fill:#0080c5;fill-rule:evenodd"/><path d="M388.18,382.5c0,3-1.31,3.43-1.92,3.43s-1.31-.2-1.51-2.82c.2-2.52,1.31-3.23,2.12-3.23s1.31.91,1.31,2.62Zm-5.65,1.11a2.92,2.92,0,0,0,3.23,2.92c3,0,4.74-2.12,4.54-4.24a3.24,3.24,0,0,0-.6-2.22,3.72,3.72,0,0,0-2.62-.81,4.63,4.63,0,0,0-4.54,4.34Z" transform="translate(-311.5 -316.23)" style="fill:#0080c5;fill-rule:evenodd"/><path d="M393.72,380.07a1.35,1.35,0,0,1,.91-.2,1.11,1.11,0,0,1,1.11,1.11c0,1.11-.71,1.71-2,1.71h-.4l.2-1.71c0-.4.2-.6.2-.91Zm-.4,3c.2,0,.4.2.71.71l1,1.51c.2.4.71.61.91.81.2,0,.4.2.81.2h1.11a5,5,0,0,1-1.31-1.71,10.25,10.25,0,0,1-.81-1.51c-.3,0-.3,0-.5-.2h0c.71,0,2.22-.4,2.22-1.92,0-1.11-.91-1.51-2.42-1.51h-3.23l-1,6.86h1.92l.61-3.23Z" transform="translate(-311.5 -316.23)" style="fill:#0080c5;fill-rule:evenodd"/><path d="M407.74,383.81a1.83,1.83,0,0,1,1.51-1.71.43.43,0,0,1,.4.4c0,.81-1.21,1.31-1.92,1.31Zm2.82,1a3.46,3.46,0,0,1-1.92.71c-.91,0-1.11-.4-1.11-1.11,1.31,0,3-.61,3-2.12,0-.71-.4-.91-1.11-.91-1.92,0-2.72,2.22-2.72,3.23s.61,1.71,1.51,1.71a4,4,0,0,0,2.12-.6l.2-.91Z" transform="translate(-311.5 -316.23)" style="fill:#0080c5;fill-rule:evenodd"/><path d="M413,383.3h.2c.4-.61,1.21-1.92,2.12-1.92h.4l-.2.91h-.4a1.49,1.49,0,0,0-1.11.81l-1.31,1.31-.2,1.71h-.81l.81-4.74h.91l-.4,1.92Z" transform="translate(-311.5 -316.23)" style="fill:#0080c5;fill-rule:evenodd"/><polygon points="104.91 65.16 105.72 65.16 106.22 69.09 108.55 65.16 109.45 65.16 106.43 69.9 105.52 69.9 104.91 65.16 104.91 65.16" style="fill:#0080c5;fill-rule:evenodd"/><path d="M422,381.38h.91l-.91,4.74h-.81l.81-4.74Zm.5-1.71h.81l-.2.91h-.91l.3-.91Z" transform="translate(-311.5 -316.23)" style="fill:#0080c5;fill-rule:evenodd"/><path d="M427.61,382.29a1.5,1.5,0,0,0-.91-.2c-1.31,0-1.92,1.21-1.92,2.52,0,.71.2,1.11.91,1.11a5.93,5.93,0,0,0,1.51-.61v.81a7.47,7.47,0,0,1-1.82.4,1.59,1.59,0,0,1-1.71-1.71,3.28,3.28,0,0,1,3-3.23h1.11l-.2.91Z" transform="translate(-311.5 -316.23)" style="fill:#0080c5;fill-rule:evenodd"/><path d="M429.53,383.81a1.73,1.73,0,0,1,1.51-1.71.43.43,0,0,1,.4.4c0,.81-1.31,1.31-1.92,1.31Zm2.82,1a3.74,3.74,0,0,1-1.92.71c-.91,0-1.11-.4-1.11-1.11,1.31,0,3-.61,3-2.12,0-.71-.5-.91-1.11-.91-1.92,0-2.82,2.22-2.82,3.23a1.54,1.54,0,0,0,1.51,1.71,4.07,4.07,0,0,0,2.22-.6l.2-.91Z" transform="translate(-311.5 -316.23)" style="fill:#0080c5;fill-rule:evenodd"/><path d="M433.36,385.32a3.73,3.73,0,0,0,1.51.4.67.67,0,0,0,.71-.61c0-.91-1.51-1.31-1.51-2.42a1.33,1.33,0,0,1,1.51-1.31,3.67,3.67,0,0,1,1.51.2l-.2.71c-.5,0-.91-.2-1.31-.2-.2,0-.71,0-.71.4,0,.6,1.51,1.31,1.51,2.62,0,.81-.81,1.21-1.71,1.21a6.79,6.79,0,0,1-1.51-.4l.2-.61Z" transform="translate(-311.5 -316.23)" style="fill:#0080c5;fill-rule:evenodd"/><path d="M402.2,385.32a3,3,0,0,0,1.51.4.54.54,0,0,0,.61-.61c0-.91-1.51-1.31-1.51-2.42,0-.61.4-1.31,1.71-1.31a3,3,0,0,1,1.31.2l-.2.71c-.4,0-.71-.2-1.31-.2-.2,0-.61,0-.61.4,0,.6,1.51,1.31,1.51,2.62,0,.81-.91,1.21-1.51,1.21a4.74,4.74,0,0,1-1.71-.4l.2-.61Z" transform="translate(-311.5 -316.23)" style="fill:#0080c5;fill-rule:evenodd"/><path d="M324.65,357.72c-.17.77-.43,1.11-1.28,1.11h-3.16l-2,9.13-.17,1.45h-4.61l.43-1.45,2-9.13H311.5l.68-2.9H325l-.34,1.79Z" transform="translate(-311.5 -316.23)" style="fill:#0080c5;fill-rule:evenodd"/><path d="M326.78,368l-.17,1.45h-4l.34-1.45,1.71-7.51c.17-.94.34-1.11,1.45-1.11h2.56L326.78,368ZM329,357.55c-.17.94-.34,1.28-1.11,1.28H325l.34-1.62c.17-.94.6-1.28,1.11-1.28h2.9l-.34,1.62Z" transform="translate(-311.5 -316.23)" style="fill:#0080c5;fill-rule:evenodd"/><path d="M338.65,360.11l-.68,1.62a3.08,3.08,0,0,0-2-.51,2.85,2.85,0,0,0-2.39,1.28,4,4,0,0,0-1,2.73,1.93,1.93,0,0,0,2.13,2.13,5.4,5.4,0,0,0,2.73-.85h0l-.51,2a1.13,1.13,0,0,1-.77.77,7.07,7.07,0,0,1-2.9.51c-2.9,0-4.52-1.62-4.52-4.18a6.57,6.57,0,0,1,2.9-5.12,7.87,7.87,0,0,1,4.69-1.45c1.54,0,2.56.34,2.56.77a.53.53,0,0,1-.17.34Z" transform="translate(-311.5 -316.23)" style="fill:#0080c5;fill-rule:evenodd"/><path d="M346.16,363.19l2.73,4.52a5.22,5.22,0,0,0,.85,1.54v.17H346.5c-.94,0-.94-.17-1.62-1.28l-2-4.18v.34l-.68,3.67-.43,1.45H338l.34-1.45,2.39-11c.17-.85.34-1,1.45-1h2.56l-1.45,6.32-.26.6.26.17.17-.34,2.56-2.56a1.68,1.68,0,0,1,1.45-.77h3.24l-4.52,3.84Z" transform="translate(-311.5 -316.23)" style="fill:#0080c5;fill-rule:evenodd"/><path d="M360.16,364.64c0,.34-.17.34-.68.34h-6.06a2.25,2.25,0,0,0,2.56,2.39,13,13,0,0,0,4-.85h0l-.51,1.45c0,.51-.43.68-.77,1a10.6,10.6,0,0,1-3.84.77c-3.24,0-5.46-1.79-5.46-4.52,0-3.33,3.16-6.23,6.74-6.23,2.73,0,4.44,1.45,4.44,4a3.1,3.1,0,0,1-.43,1.62Zm-4-3.84a2.94,2.94,0,0,0-2.56,2.39h3.33c.51,0,.68,0,.68-.94a1.34,1.34,0,0,0-1.45-1.45Z" transform="translate(-311.5 -316.23)" style="fill:#0080c5;fill-rule:evenodd"/><path d="M369.29,361.22c-.17.34-.34.51-.94.51h-1.79l-.94,3.84v1.11c0,.51.17.68.77.68a7.08,7.08,0,0,0,2.39-.51V367l-.77,1.62a1.14,1.14,0,0,1-.51.6,6.23,6.23,0,0,1-2.73.51c-2,0-3.16-.94-3.16-2.22a5.4,5.4,0,0,1,.17-1.28l.94-4.52H361.1l.51-1.62,5.72-3.5.17.17-.6,2.73h3.33l-.94,1.71Z" transform="translate(-311.5 -316.23)" style="fill:#0080c5;fill-rule:evenodd"/><path d="M385,363.19l3.41,5.63.17.43v.17h-4c-.68,0-1-.43-1.62-1.28l-2.13-4.61-.94,4.44-.17,1.45h-4.78l.6-1.45,2.56-12h6c3.33,0,5.12,1,5.12,3.07s-1.62,3.67-4.18,4.18Zm-2.39-5h-.77l-.85,4c1.45,0,1.62,0,2.13-.34,1.28-.51,1.88-1.28,1.88-2.13s-.77-1.54-2.39-1.54Z" transform="translate(-311.5 -316.23)" style="fill:#0080c5;fill-rule:evenodd"/><path d="M399.59,364.64c-.26.34-.43.34-.94.34h-6.06a2.25,2.25,0,0,0,2.56,2.39,13,13,0,0,0,4-.85h0l-.51,1.45c0,.51-.34.68-.77,1a10.13,10.13,0,0,1-3.76.77c-3.33,0-5.55-1.79-5.55-4.52,0-3.33,3.16-6.23,7-6.23,2.56,0,4.18,1.45,4.18,4a15.67,15.67,0,0,1-.17,1.62Zm-4.27-3.84c-1,0-2,.94-2.48,2.39h3.24c.51,0,.77,0,.77-.94a1.41,1.41,0,0,0-1.54-1.45Z" transform="translate(-311.5 -316.23)" style="fill:#0080c5;fill-rule:evenodd"/><path d="M410.18,360.11l-.43,1.62h-.17a6.23,6.23,0,0,0-2.73-.51c-1.28,0-2,.17-2,.68,0,.34.34.6,2,1.11,2.39.94,3.33,1.62,3.33,2.9a3.48,3.48,0,0,1-1.54,2.56c-.85.94-2.31,1.28-4.18,1.28a8.22,8.22,0,0,1-4-.77c-.34,0-.51-.17-.51-.34s0-.17.17-.51l.51-1.62h.26a7.68,7.68,0,0,0,3.59,1c1.11,0,1.88-.34,1.88-.85s-.17-.6-1.28-.94c-2-.77-2.56-.94-2.9-1.28a2.12,2.12,0,0,1-.94-1.79c0-2,2.39-3.67,5.29-3.67a15,15,0,0,1,2.9.34c.51.17.77.43.77.6v.17Z" transform="translate(-311.5 -316.23)" style="fill:#0080c5;fill-rule:evenodd"/><path d="M419.05,361.22c-.17.34-.34.51-.68.51h-2l-.68,3.84a2.37,2.37,0,0,0-.26,1.11c0,.51.26.68.77.68a6.69,6.69,0,0,0,2.39-.51l.17.17-.94,1.62a3.62,3.62,0,0,1-.34.6,7.35,7.35,0,0,1-2.9.51c-1.88,0-3.16-.94-3.16-2.22a3.7,3.7,0,0,1,.26-1.28l1-4.52h-1.79l.77-1.62,5.46-3.5.34.17-.51,2.73H420l-.94,1.71Z" transform="translate(-311.5 -316.23)" style="fill:#0080c5;fill-rule:evenodd"/><path d="M429.64,368l-.17,1.45h-2.56c-.34,0-.51-.17-.51-.6l-.26-.85H426a4.16,4.16,0,0,1-3.41,1.79c-2,0-3.5-1.45-3.5-3.84a6.92,6.92,0,0,1,2-4.7,6.7,6.7,0,0,1,4.87-2c.6,0,1.71.17,2.56.17a6,6,0,0,1,1.11.17,3,3,0,0,0,1.79-.51h0l-1.79,9Zm-3.07-6.74a2.67,2.67,0,0,0-2.73,1.79,5.31,5.31,0,0,0-.77,2.9c0,1.11.34,1.45,1.28,1.45a2.19,2.19,0,0,0,1.45-.85,7.69,7.69,0,0,0,.94-3.16,9,9,0,0,1,.68-2.13Z" transform="translate(-311.5 -316.23)" style="fill:#0080c5;fill-rule:evenodd"/><path d="M441.67,368l-.34,1.45h-2.22c-.68,0-.68-.17-.94-.6l-.17-.68a5.37,5.37,0,0,1-3.84,1.62,2.56,2.56,0,0,1-2.73-2.56c0-.34.26-.94.43-1.79l1.11-5c.17-.94.34-1.11,1.2-1.11H437l-1.28,5.89a1.54,1.54,0,0,0-.26,1c0,.6.43.77.94.77a2.52,2.52,0,0,0,1.79-.77l1.28-5.8c.26-.94.43-1.11,1.28-1.11h2.73L441.67,368Z" transform="translate(-311.5 -316.23)" style="fill:#0080c5;fill-rule:evenodd"/><path d="M453.2,359.94l-.77,2a3.77,3.77,0,0,0-1.28-.17,2.94,2.94,0,0,0-2.9,2.73l-.77,3.5-.17,1.45h-4l.43-1.45,1.62-7.51c.17-.94.34-1.11,1.28-1.11h2.56l-.43,1.88c.94-1.45,1.88-2.22,3.33-2.22.68,0,1.11.17,1.11.51v.43Z" transform="translate(-311.5 -316.23)" style="fill:#0080c5;fill-rule:evenodd"/><path d="M462.5,368l-.26,1.45h-2.31c-.43,0-.77-.17-.77-.6L459,368a5,5,0,0,1-3.5,1.79c-2.13,0-3.42-1.45-3.42-3.84a7.49,7.49,0,0,1,1.79-4.7,6.75,6.75,0,0,1,5-2c.68,0,1.62.17,2.73.17.34,0,.94.17,1.11.17a2.63,2.63,0,0,0,1.62-.51h.17l-2,9Zm-3.16-6.74a3,3,0,0,0-2.73,1.79,9,9,0,0,0-.68,2.9c0,1.11.34,1.45,1.28,1.45a2,2,0,0,0,1.45-.85c.51-.6.68-1.54,1.11-3.16a11,11,0,0,1,.51-2.13Z" transform="translate(-311.5 -316.23)" style="fill:#0080c5;fill-rule:evenodd"/><path d="M475.22,364.47c-.34,2-.68,3.67-.68,4.18a1.75,1.75,0,0,0,.17.77h-2.56a1.26,1.26,0,0,1-1.28-1.28,5.53,5.53,0,0,1,.17-1.62c.17-.77.17-.43.51-2.22.17-.94.43-1.45.43-1.79,0-.6-.43-.77-.94-.77a2.67,2.67,0,0,0-1.79.77L468.13,368l-.34,1.45H464l.34-1.45,1.62-7.51c.17-.94.34-1.11,1.28-1.11h2.39l-.17,1.45a4.72,4.72,0,0,1,3.84-1.79,2.22,2.22,0,0,1,2.47,2.39,9.9,9.9,0,0,1-.51,3.07Z" transform="translate(-311.5 -316.23)" style="fill:#0080c5;fill-rule:evenodd"/><path d="M485,361.22a.94.94,0,0,1-.85.51H482.3l-.85,3.84a3.42,3.42,0,0,0-.17,1.11.62.62,0,0,0,.68.68,5.44,5.44,0,0,0,2.39-.51l.17.17-.94,1.62a3.69,3.69,0,0,1-.34.6,6.77,6.77,0,0,1-2.73.51c-2,0-3.24-.94-3.24-2.22a5.4,5.4,0,0,1,.17-1.28l1.11-4.52h-1.71l.6-1.62,5.46-3.5.34.17-.51,2.73h3.07l-.77,1.71Z" transform="translate(-311.5 -316.23)" style="fill:#0080c5;fill-rule:evenodd"/><path d="M485.63,369.42a1.08,1.08,0,0,1-1.11-1.11,1.74,1.74,0,0,1,1.62-1.62,1.12,1.12,0,0,1,1.11,1,1.83,1.83,0,0,1-1.62,1.71Zm.51-2.39a1.36,1.36,0,0,0-1.28,1.11v.17a.69.69,0,0,0,.77.68,1.4,1.4,0,0,0,1.28-.85v-.43a.75.75,0,0,0-.77-.68Zm0,1.11.17.34H486l-.34-.34v.34h-.34l.17-.94H486c.17,0,.34,0,.34.17a.66.66,0,0,1-.17.43Zm-.17-.43h-.17V368H486s.17,0,.17-.26Z" transform="translate(-311.5 -316.23)" style="fill:#0080c5;fill-rule:evenodd"/></svg>