<?xml version="1.0" encoding="UTF-8"?><svg id="uuid-a4377f87-6852-4615-ac0a-9814100a7f08" xmlns="http://www.w3.org/2000/svg" viewBox="0 0 677.92 114.67">
<title>Trendyol Go logo - Brandlogos.net</title><path d="M558.67,18.95c.79-.02,1.57.13,2.3.42s1.39.73,1.95,1.29c.56.56,1,1.22,1.29,1.95.3.73.44,1.51.42,2.3v54.39c-.02,4.73-.99,9.41-2.86,13.75-1.8,4.21-4.38,8.03-7.6,11.28-3.23,3.27-7.06,5.86-11.3,7.63-4.23,1.77-8.77,2.69-13.36,2.7-9.95.14-19.68-2.9-27.77-8.69-1.28-.92-2.15-2.31-2.41-3.87-.23-1.55.15-3.13,1.06-4.41.91-1.28,2.28-2.15,3.83-2.43.78-.13,1.57-.11,2.33.08.76.19,1.48.53,2.11,1,6.08,4.33,13.39,6.59,20.86,6.46,3.08.04,6.13-.56,8.96-1.77,2.83-1.21,5.37-3,7.46-5.26,2.22-2.21,3.97-4.84,5.15-7.74,1.18-2.9,1.75-6.01,1.69-9.14v-.89c-6.45,5.59-14.73,8.61-23.26,8.5-4.7.02-9.35-.89-13.69-2.66-4.17-1.65-7.96-4.11-11.17-7.23-3.21-3.05-5.77-6.71-7.55-10.76-1.84-4.13-2.79-8.6-2.79-13.12s.95-8.99,2.79-13.12c1.77-4.06,4.34-7.72,7.54-10.78,3.21-3.12,7.01-5.58,11.17-7.23,4.35-1.77,9-2.68,13.69-2.66,8.53-.11,16.81,2.91,23.26,8.5v-2.53c-.01-.79.13-1.57.43-2.3.29-.73.73-1.39,1.28-1.95.55-.55,1.2-.98,1.92-1.28.72-.29,1.49-.44,2.27-.43M529.51,74.7c3.03.06,6.03-.48,8.85-1.59,2.82-1.11,5.39-2.77,7.56-4.87,2.16-1.96,3.88-4.35,5.06-7.01,1.18-2.66,1.79-5.55,1.79-8.46s-.61-5.79-1.79-8.46c-1.18-2.66-2.9-5.05-5.06-7.01-2.17-2.11-4.74-3.77-7.56-4.88-2.82-1.11-5.83-1.65-8.85-1.59-6.13-.11-12.06,2.21-16.48,6.47-2.16,1.96-3.88,4.35-5.06,7.01-1.18,2.66-1.79,5.55-1.79,8.46s.61,5.79,1.79,8.46c1.18,2.66,2.9,5.05,5.06,7.01,4.42,4.25,10.35,6.58,16.48,6.46Z" style="fill:#ff6720;"/><path d="M677.92,53.81c0-1.58-.61-3.1-1.67-4.26-1.07-1.16-2.53-1.88-4.11-2.02l-30.65-2.56c-.44-.03-.87-.19-1.22-.47-.35-.28-.61-.65-.75-1.07,0-.02,0-.03,0-.05-.11-.35-.14-.73-.07-1.1.07-.37.22-.71.46-1,.23-.29.53-.52.87-.67.34-.15.71-.21,1.08-.17l6.98.63c.7.06,1.4-.03,2.06-.27s1.25-.63,1.74-1.13c.49-.5.86-1.1,1.09-1.77.23-.66.31-1.37.23-2.06-.14-1.03-.61-1.99-1.34-2.74-.73-.75-1.68-1.24-2.71-1.41l-2.9-.52c-8.84-1.68-17.4-4.6-25.43-8.66-5.27-2.6-11.11-3.82-16.99-3.57-5.87.25-11.58,1.98-16.61,5.02-5.03,3.04-9.21,7.3-12.16,12.38-2.95,5.08-4.58,10.82-4.73,16.7-.15,5.87,1.18,11.69,3.87,16.92s6.65,9.69,11.52,12.98c4.87,3.29,10.49,5.31,16.34,5.86,5.85.55,11.75-.38,17.15-2.7,9.16-4.07,18.77-7.07,28.62-8.92l7.42-1.32c1.2-.21,2.28-.87,3-1.86.72-.98,1.03-2.21.87-3.42-.16-1.21-.79-2.31-1.74-3.07-.96-.76-2.17-1.12-3.39-1l-7.21.64c-.4.04-.8-.03-1.16-.18-.36-.16-.69-.4-.94-.71s-.42-.68-.49-1.07c-.07-.39-.05-.79.07-1.17.14-.45.42-.85.79-1.15.37-.3.83-.47,1.3-.51l24.99-2.19c1.59-.14,3.07-.86,4.14-2.04,1.08-1.18,1.67-2.71,1.66-4.31ZM630.35,53.92c0,4.79-1.42,9.47-4.08,13.45-2.66,3.98-6.44,7.08-10.86,8.92s-9.29,2.31-13.99,1.38c-4.7-.93-9.01-3.24-12.39-6.62-3.39-3.39-5.69-7.7-6.62-12.39-.93-4.7-.46-9.56,1.38-13.99,1.83-4.42,4.93-8.2,8.91-10.86,3.98-2.66,8.66-4.08,13.45-4.08,6.42,0,12.57,2.55,17.11,7.09,4.54,4.54,7.09,10.69,7.09,17.11Z" style="fill:#ff6720;"/><path d="M606.13,69.24c-3.04,0-6.01-.9-8.53-2.59-2.53-1.69-4.49-4.09-5.66-6.89-1.16-2.81-1.47-5.9-.87-8.87.59-2.98,2.06-5.72,4.2-7.86,2.15-2.15,4.88-3.61,7.87-4.2,2.98-.59,6.07-.29,8.88.87,2.81,1.16,5.2,3.13,6.89,5.66,1.69,2.53,2.59,5.5,2.59,8.53,0,4.07-1.62,7.98-4.5,10.86-2.88,2.88-6.79,4.5-10.86,4.5Z" style="fill:#ff6720;"/><path d="M671.07,68.73c-.13-.81-.5-1.55-1.06-2.15-.56-.59-1.28-1.01-2.08-1.19-.79-.18-1.63-.13-2.39.16-.76.29-1.42.8-1.9,1.46-.47.66-.74,1.45-.77,2.27-.02.82.19,1.62.63,2.31.43.69,1.06,1.24,1.81,1.58.74.33,1.57.44,2.38.31,1.08-.18,2.04-.78,2.67-1.67.63-.89.89-2,.71-3.07Z" style="fill:#ff6720;"/><path d="M665.3,36.77c-.13-.8-.5-1.55-1.06-2.15-.56-.59-1.28-1.01-2.08-1.2-.79-.18-1.63-.13-2.39.16-.76.29-1.42.8-1.9,1.46-.47.66-.74,1.45-.77,2.27-.03.82.19,1.62.62,2.31.43.69,1.06,1.24,1.8,1.58.74.34,1.57.44,2.37.31.54-.09,1.05-.28,1.51-.57.46-.29.86-.66,1.17-1.1.32-.44.54-.94.66-1.47.12-.53.14-1.07.05-1.61Z" style="fill:#ff6720;"/><path d="M167.48,57.95h-53.06c2.43,9.93,10.05,17.72,20.57,17.72,3.02-.05,6-.71,8.76-1.94,2.76-1.23,5.24-3.01,7.29-5.23l12.83.27c-5.64,10.74-16.45,17.74-28.91,17.74-18.26,0-32.59-15.97-32.59-33.88s14.1-33.64,32.81-33.64,32.6,14.91,32.6,32.94c0,2.01-.12,4.02-.35,6.02h.05ZM135.12,29.94c-10.4,0-20,8.21-20.69,18.72h41.38c-.7-10.51-10.28-18.72-20.69-18.72Z"/><path d="M220.62,86.48v-36.54c0-10.86-3.24-20-15.95-20-11.77,0-16.86,9.15-16.86,19.88v36.65h-12.02V20.7h11.21v6.82h.22c4.62-6.12,11.33-8.55,18.73-8.55,9.13,0,17.68,3.58,22.66,11.44,3.12,4.85,4.04,10.75,4.04,16.41v39.66h-12.03Z"/><path d="M296.57,86.48v-10.87h-.23c-5.32,7.39-13.75,10.87-22.65,10.87-19.19,0-33.3-14.45-33.3-33.51s13.87-33.99,33.3-33.99c8.08,0,16.64,3.12,21.73,9.59h.22V0h12.03v86.48h-11.1ZM274.38,29.94c-12.71,0-21.96,10.41-21.96,22.89s9.59,22.65,21.85,22.65,22.34-10.28,22.34-22.65-9.13-22.89-22.2-22.89h-.03Z"/><path d="M342.44,106.13h-12.48l9.36-22.66-25.54-62.77h12.94l18.84,49.7,19.3-49.7h12.95l-35.37,85.43Z"/><path d="M412.03,86.49c-18.85,0-34.57-15.28-34.57-34.21s16.06-33.29,34.57-33.29,34.56,14.56,34.56,33.51-15.15,33.99-34.56,33.99h0ZM412.03,29.94c-2.97,0-5.91.6-8.65,1.74-2.74,1.14-5.23,2.81-7.32,4.92-2.09,2.1-3.75,4.6-4.88,7.35-1.13,2.75-1.71,5.69-1.7,8.66,0,12.48,10.06,22.92,22.55,22.92s22.54-10.56,22.54-23.04c0-2.96-.57-5.9-1.7-8.64-1.13-2.74-2.79-5.23-4.88-7.32-2.1-2.1-4.58-3.76-7.32-4.89-2.74-1.13-5.67-1.71-8.63-1.71h0Z"/><path d="M456.41,86.49V0h12.03v86.49h-12.03Z"/><path d="M11.87,72.98c.41,1.74,1.07,3.4,1.96,4.94.8,1.28,1.79,2.43,2.95,3.41,3.97,3.44,9.08,5.28,14.33,5.16,5.52-.02,10.94-1.46,15.74-4.19v-11.46c-4.96,2.92-9.73,4.56-14.2,4.56-6.11,0-9.2-3.87-9.2-11.22V31.99h20.16v-11.29h-20.16V0h-11.87v20.7H0v11.29h11.09v29.27c0,5.74.27,9.68.8,11.72h-.01Z"/><path d="M84.62,31.42c3.72,0,7.82,2.09,12.18,6.16l6.53-10.84c-5.29-4.89-11.73-7.1-15.49-7.1h-.81c-4.29,0-11.48,0-17.37,9.49l-.24.39.06-8.82h-12.45v65.78h12.42v-35.31c-.1-5,1.48-9.88,4.5-13.87,2.99-3.9,6.58-5.89,10.67-5.89Z"/></svg>