<?xml version="1.0" encoding="UTF-8"?><svg id="Layer_1" xmlns="http://www.w3.org/2000/svg" xmlns:xlink="http://www.w3.org/1999/xlink" viewBox="0 0 258.27 83.41"><defs><style>.cls-1{fill:none;}.cls-2{fill:url(#linear-gradient);}.cls-3{clip-path:url(#clippath);}</style><clipPath id="clippath"><path class="cls-1" d="M76.14,1.48l-21.72,54.91-8.79-46.68c-1.03-5.21-5.1-8.22-9.63-8.22H.49l-.49,2.34c7.29,1.59,15.57,4.14,20.59,6.87,3.07,1.67,3.95,3.12,4.96,7.09l16.64,64.38h22.06L98.06,1.48h-21.92ZM107.01,1.48l-17.26,80.67h20.87L127.88,1.48h-20.86ZM226.67,23.27l6.32,30.29h-17.31l10.99-30.29ZM223.61,1.48c-4.01,0-7.39,2.33-8.88,5.92l-31.32,74.76h21.91l4.35-12.05h26.77l2.52,12.05h19.3L241.42,1.48h-17.81ZM133.56,26.66c-.14,11.62,10.36,18.09,18.27,21.96,8.13,3.95,10.85,6.49,10.82,10.03-.06,5.41-6.49,7.8-12.49,7.89-10.49.16-16.58-2.83-21.43-5.1l-3.78,17.68c4.87,2.24,13.87,4.19,23.21,4.29,21.93,0,36.26-10.83,36.33-27.6.09-21.29-29.44-22.46-29.24-31.98.07-2.89,2.82-5.97,8.85-6.76,2.99-.39,11.24-.69,20.57,3.61l3.67-17.11c-5.02-1.82-11.48-3.58-19.53-3.58-20.63,0-35.14,10.97-35.26,26.66"/></clipPath><linearGradient id="linear-gradient" x1="-178.01" y1="437.94" x2="-175.97" y2="437.94" gradientTransform="translate(22526 55460.55) scale(126.55 -126.55)" gradientUnits="userSpaceOnUse"><stop offset="0" stop-color="#241f5d"/><stop offset="1" stop-color="#034ea1"/></linearGradient></defs><g class="cls-3"><rect class="cls-2" y="0" width="258.27" height="83.41"/></g></svg>